<svg width="22" height="18" viewBox="0 0 22 18" fill="none" xmlns="http://www.w3.org/2000/svg">
<path fill-rule="evenodd" clip-rule="evenodd" d="M17.6666 0C18.2189 0 18.6666 0.447715 18.6666 1V15.597C18.6666 15.5971 18.6666 15.5969 18.6666 15.597C18.6667 16.1288 18.4903 16.6458 18.1649 17.0663C17.8395 17.487 17.3835 17.7876 16.8687 17.921C16.3539 18.0544 15.8093 18.0131 15.3206 17.8034C14.8319 17.5938 14.4266 17.2278 14.1685 16.763C14.1684 16.7629 14.1685 16.763 14.1685 16.763L6.08314 2.20828C6.04012 2.13079 5.97245 2.06957 5.89099 2.03463C5.80953 1.99969 5.71877 1.9928 5.63297 2.01503C5.54717 2.03727 5.47118 2.08737 5.41694 2.15748C5.3627 2.22759 5.33329 2.31373 5.33331 2.40236V17C5.33331 17.5523 4.8856 18 4.33331 18C3.78103 18 3.33331 17.5523 3.33331 17L3.33331 2.40297C3.33331 2.40287 3.33331 2.40307 3.33331 2.40297C3.33322 1.87125 3.50971 1.35424 3.83507 0.933679C4.1605 0.513038 4.61643 0.212401 5.13125 0.0789863C5.64607 -0.0544283 6.19063 -0.0130634 6.67939 0.196584C7.16809 0.4062 7.57332 0.772176 7.83149 1.23705C7.83152 1.23712 7.83145 1.23698 7.83149 1.23705L15.9168 15.7917C15.9598 15.8692 16.0275 15.9304 16.109 15.9654C16.1904 16.0003 16.2812 16.0072 16.367 15.985C16.4528 15.9627 16.5288 15.9126 16.583 15.8425C16.6373 15.7724 16.6667 15.6863 16.6666 15.5976L16.6666 1C16.6666 0.447715 17.1144 0 17.6666 0Z" fill="#263238" fill-opacity="0.4"/>
<path fill-rule="evenodd" clip-rule="evenodd" d="M0.666656 6.33325C0.666656 5.78097 1.11437 5.33325 1.66666 5.33325H20.3333C20.8856 5.33325 21.3333 5.78097 21.3333 6.33325C21.3333 6.88554 20.8856 7.33325 20.3333 7.33325H1.66666C1.11437 7.33325 0.666656 6.88554 0.666656 6.33325Z" fill="#263238" fill-opacity="0.4"/>
<path fill-rule="evenodd" clip-rule="evenodd" d="M0.666656 11.6667C0.666656 11.1145 1.11437 10.6667 1.66666 10.6667H20.3333C20.8856 10.6667 21.3333 11.1145 21.3333 11.6667C21.3333 12.219 20.8856 12.6667 20.3333 12.6667H1.66666C1.11437 12.6667 0.666656 12.219 0.666656 11.6667Z" fill="#263238" fill-opacity="0.4"/>
</svg>
